<svg width="35" height="35" viewBox="0 0 35 35" fill="none" xmlns="http://www.w3.org/2000/svg">
<path d="M13.3633 3.33334L13.355 5.00001H21.5333L21.5433 3.33334H13.3633Z" fill="white"/>
<path d="M26.6667 5.00168V1.66502C26.6667 0.745008 25.9183 0 25 0C24.08 0 23.3333 0.745008 23.3333 1.66502V5.00168C23.3333 5.92169 24.0816 6.6667 25 6.6667C25.9199 6.66664 26.6667 5.92163 26.6667 5.00168Z" fill="white"/>
<path d="M10.4167 6.66664C11.1067 6.66664 11.6667 6.11002 11.6667 5.41333V1.25337C11.6667 0.561659 11.1083 0 10.4167 0H9.5833C8.89331 0 8.33331 0.556683 8.33331 1.25337V5.41167C8.33331 6.10504 8.89165 6.66664 9.5833 6.66664H10.4167Z" fill="white"/>
<path d="M6.61666 5.00002L6.62501 3.33335H1.04834C0.468325 3.33335 0 3.81831 0 4.41497V33.92C0 34.5167 0.468325 35 1.04668 35H33.9517C34.5317 35 35 34.5151 35 33.92V4.41497C35 3.81665 34.53 3.33329 33.9517 3.33329H28.345L28.3367 4.99996H33.3333V13.3333H1.66667V5.00002H6.61666ZM6.66664 33.3334H2.38332C1.98665 33.3334 1.66667 33.055 1.66667 32.71V28.3334H6.66664V33.3334ZM6.66664 26.6667H1.66667V21.6667H6.66664V26.6667ZM28.3334 15H33.3334V20H28.3334V15ZM28.3334 21.6667H33.3334V26.6667H28.3334V21.6667ZM28.3334 28.3334H33.3334V32.71C33.3334 33.0534 33.0117 33.3334 32.6167 33.3334H28.3334V28.3334H28.3334ZM21.6667 15H26.6667V20H21.6667V15ZM21.6667 21.6667H26.6667V26.6667H21.6667V21.6667ZM21.6667 28.3334H26.6667V33.3334H21.6667V28.3334ZM15 15H20V20H15V15ZM15 28.3334H20V33.3334H15V28.3334ZM8.33332 15H13.3333V20H8.33332V15ZM8.33332 21.6667H13.3333V26.6667H8.33332V21.6667ZM8.33332 28.3334H13.3333V33.3334H8.33332V28.3334ZM6.66664 15V20H1.66667V15H6.66664Z" fill="white"/>
</svg>
