<svg width="42" height="40" viewBox="0 0 42 40" fill="none" xmlns="http://www.w3.org/2000/svg">
<path d="M37.4706 29.6142C38.4845 27.8528 39.0258 25.88 39.0462 23.8714C39.0666 21.8627 38.5656 19.8804 37.5877 18.1006C36.6098 16.3208 35.1853 14.7986 33.4408 13.6695C31.6964 12.5404 29.686 11.8393 27.5885 11.6286C26.9277 10.0946 25.9452 8.70517 24.7012 7.54531C23.4571 6.38545 21.9776 5.47954 20.3532 4.88304C18.7289 4.28653 16.9938 4.01197 15.2542 4.07615C13.5145 4.14033 11.8069 4.54191 10.2359 5.2563C8.66486 5.9707 7.26339 6.98289 6.11728 8.23093C4.97116 9.47898 4.10449 10.9366 3.57031 12.5147C3.03613 14.0927 2.84567 15.758 3.01058 17.4086C3.1755 19.0592 3.69232 20.6603 4.52942 22.1141L3.47791 25.6197C3.38138 25.9412 3.37689 26.2815 3.46492 26.6052C3.55295 26.9289 3.73028 27.2243 3.97855 27.4608C4.22681 27.6973 4.53696 27.8662 4.87686 27.9501C5.21675 28.034 5.57402 28.0297 5.91162 27.9379L9.59261 26.9363C11.0813 27.7139 12.7178 28.201 14.4065 28.3691C15.0902 29.9575 16.1183 31.3905 17.4237 32.5743C18.729 33.7582 20.2822 34.6662 21.9814 35.2389C23.6807 35.8116 25.4877 36.0362 27.2844 35.8979C29.0811 35.7595 30.8268 35.2614 32.4074 34.4362L36.0884 35.4379C36.426 35.5297 36.7832 35.534 37.1231 35.4501C37.463 35.3662 37.7731 35.1973 38.0214 34.9609C38.2697 34.7244 38.447 34.429 38.5351 34.1053C38.6232 33.7816 38.6187 33.4414 38.5222 33.1199L37.4706 29.6142ZM9.72094 24.9888C9.62947 24.9888 9.53844 25.0009 9.4505 25.0249L5.37088 26.135L6.53646 22.2495C6.57328 22.1267 6.58336 21.998 6.56608 21.8713C6.54881 21.7446 6.50454 21.6226 6.43601 21.5128C5.09099 19.3529 4.62011 16.7997 5.11178 14.3326C5.60344 11.8654 7.02384 9.6541 9.10626 8.11376C11.1887 6.57342 13.7899 5.81003 16.4215 5.96694C19.053 6.12384 21.534 7.19023 23.3984 8.9659C25.2628 10.7416 26.3826 13.1043 26.5473 15.6106C26.7121 18.1169 25.9105 20.5942 24.2931 22.5775C22.6758 24.5607 20.3539 25.9135 17.7634 26.3817C15.1729 26.85 12.4921 26.4015 10.2242 25.1206C10.0719 25.0343 9.89808 24.9888 9.72094 24.9888ZM35.4635 29.7495L36.6293 33.635L32.5495 32.525C32.4205 32.4898 32.2854 32.4802 32.1524 32.4966C32.0193 32.5131 31.8913 32.5552 31.776 32.6205C30.5003 33.3407 29.083 33.8037 27.6118 33.9809C26.1406 34.1582 24.6468 34.0459 23.2231 33.651C21.7993 33.2562 20.4758 32.5871 19.3345 31.6854C18.1932 30.7836 17.2585 29.6683 16.5882 28.4085C18.4293 28.2948 20.2228 27.8031 21.8454 26.9669C23.4681 26.1308 24.8816 24.9701 25.9887 23.5645C27.0959 22.1589 27.8705 20.5418 28.2595 18.8242C28.6484 17.1066 28.6424 15.3291 28.2419 13.6139C29.954 13.9195 31.5635 14.6138 32.9339 15.638C34.3042 16.6622 35.3949 17.9861 36.1135 19.4973C36.8321 21.0086 37.1574 22.6626 37.0617 24.3191C36.966 25.9755 36.4523 27.5856 35.564 29.0127C35.4954 29.1225 35.4512 29.2445 35.4339 29.3712C35.4166 29.4979 35.4267 29.6266 35.4635 29.7495Z" fill="white"/>
</svg>
