<svg width="26" height="25" viewBox="0 0 26 25" fill="none" xmlns="http://www.w3.org/2000/svg">
<ellipse cx="13.3379" cy="12.5" rx="12.4988" ry="12.5" fill="white"/>
<path d="M18.963 8.63666C18.963 7.70078 18.1373 6.875 17.2015 6.875H10.1006C9.1648 6.875 8.33911 7.70078 8.33911 8.63666V15.7383C8.33911 16.6742 9.1648 17.5 10.1006 17.5H13.6786V13.4812H12.3575V11.7196H13.6786V11.0039C13.6786 9.79275 14.5593 8.74676 15.6602 8.74676H17.0914V10.5084H15.6602C15.4951 10.5084 15.33 10.6736 15.33 11.0039V11.7196H17.0914V13.4812H15.33V17.5H17.2015C18.1373 17.5 18.963 16.6742 18.963 15.7383V8.63666Z" fill="#8253D8"/>
</svg>
