<svg width="30" height="40" viewBox="0 0 30 40" fill="none" xmlns="http://www.w3.org/2000/svg">
<path d="M15 8.75C11.5487 8.75 8.75 11.5487 8.75 15C8.75 18.4513 11.5487 21.25 15 21.25C18.4513 21.25 21.25 18.4513 21.25 15C21.25 11.5487 18.4513 8.75 15 8.75ZM15 18.75C12.9287 18.75 11.25 17.0713 11.25 15C11.25 12.9287 12.9287 11.25 15 11.25C17.0713 11.25 18.75 12.9287 18.75 15C18.75 17.0713 17.0713 18.75 15 18.75ZM15 0C6.71626 0 0 6.71626 0 15C0 21.2713 12.5063 40.0125 15 40C17.455 40.0125 30 21.1875 30 15C30 6.71626 23.2838 0 15 0ZM15 36.25C12.9213 36.2613 2.5 20.2262 2.5 15C2.5 8.09626 8.09626 2.5 15 2.5C21.9037 2.5 27.5 8.09626 27.5 15C27.5 20.1563 17.0463 36.2613 15 36.25Z" fill="white"/>
</svg>
