<svg width="1920" height="1076" viewBox="0 0 1920 1076" fill="none" xmlns="http://www.w3.org/2000/svg">
<path opacity="0.11" d="M0 607.406C0 607.406 100.42 847.35 401.168 798.883C701.915 750.416 843.194 808.46 938.747 913.824C1034.3 1019.19 1290.8 1008.15 1519.68 966.198C1748.55 924.243 1882.81 1007.99 1920 1075.64C1920.02 1075.65 1919.63 0.0269775 1919.63 0.0269775L0.0440022 0L0 607.406Z" fill="url(#paint0_linear)"/>
<path d="M0.0579834 607.558C0.0579834 607.558 95.3179 811.751 401.23 768.705C707.142 725.659 820.846 736.605 945.366 865.597C1069.89 994.589 1289.31 973.137 1518.22 932.663C1747.13 892.189 1878.38 1000.82 1919.97 1075.63C1920.01 1073.23 1919.9 0.0100098 1919.9 0.0100098L0.0809915 0.0210266L0.0579834 607.558Z" fill="url(#paint1_linear)"/>
<path opacity="0.14" d="M25.7185 687.743C25.7185 687.743 199.944 295.697 843.074 432.711C1486.2 569.725 1712.41 510.178 1899.13 -31.271" stroke="#CF5DDE" stroke-width="128"/>
<defs>
<linearGradient id="paint0_linear" x1="960" y1="0" x2="960" y2="1075.64" gradientUnits="userSpaceOnUse">
<stop stop-color="#8253D8"/>
<stop offset="1" stop-color="#2E82EF"/>
</linearGradient>
<linearGradient id="paint1_linear" x1="960.019" y1="0.0100098" x2="960.019" y2="1075.63" gradientUnits="userSpaceOnUse">
<stop stop-color="#8253D8"/>
<stop offset="1" stop-color="#D05DDE"/>
</linearGradient>
</defs>
</svg>
