<svg width="26" height="25" viewBox="0 0 26 25" fill="none" xmlns="http://www.w3.org/2000/svg">
<ellipse cx="13.3339" cy="12.5" rx="12.4988" ry="12.5" fill="white"/>
<path d="M17.4481 7.5H9.8471C8.98893 7.5 8.33508 8.15385 8.33508 9.01202V16.613C8.33508 17.4712 8.98893 18.125 9.8471 18.125H17.4481C18.3062 18.125 18.9601 17.4712 18.9601 16.613V9.01202C18.9601 8.15385 18.3062 7.5 17.4481 7.5ZM13.6476 16C15.4048 16 16.8351 14.6106 16.8351 12.9351C16.8351 12.649 16.7942 12.3221 16.7125 12.0769H17.6115V16.4087C17.6115 16.613 17.4481 16.8173 17.2029 16.8173H10.0923C9.88797 16.8173 9.68364 16.6538 9.68364 16.4087V12.0361H10.6235C10.5418 12.3221 10.5009 12.6082 10.5009 12.8942C10.4601 14.6106 11.8904 16 13.6476 16ZM13.6476 14.774C12.5034 14.774 11.6043 13.875 11.6043 12.7716C11.6043 11.6683 12.5034 10.7692 13.6476 10.7692C14.7918 10.7692 15.6909 11.6683 15.6909 12.7716C15.6909 13.9159 14.7918 14.774 13.6476 14.774ZM17.5707 10.4014C17.5707 10.6466 17.3663 10.851 17.1211 10.851H15.9769C15.7317 10.851 15.5274 10.6466 15.5274 10.4014V9.29808C15.5274 9.05288 15.7317 8.84856 15.9769 8.84856H17.1211C17.3663 8.84856 17.5707 9.05288 17.5707 9.29808V10.4014Z" fill="#8253D8"/>
</svg>
