<svg width="75" height="75" viewBox="0 0 75 75" fill="none" xmlns="http://www.w3.org/2000/svg">
<path d="M23.517 19.2578L52.4858 35.9828C53.6535 36.657 53.6535 38.343 52.4858 39.0173L23.517 55.7423C22.3493 56.4165 20.889 55.5735 20.889 54.225V20.775C20.889 19.4265 22.3485 18.5835 23.517 19.2578Z" fill="white"/>
<path d="M52.4858 35.9828L23.5171 19.2578C23.3423 19.1573 23.1616 19.1003 22.9801 19.0635L50.9858 35.2328C52.1536 35.907 52.1536 37.593 50.9858 38.2673L22.0171 54.9923C21.7553 55.143 21.4801 55.2083 21.2086 55.218C21.7006 55.9215 22.6793 56.2253 23.5171 55.7423L52.4858 39.0173C53.6536 38.343 53.6536 36.657 52.4858 35.9828Z" fill="white"/>
<path d="M23.517 19.2578L52.4858 35.9828C53.6535 36.657 53.6535 38.343 52.4858 39.0173L23.517 55.7423C22.3493 56.4165 20.889 55.5735 20.889 54.225V20.775C20.889 19.4265 22.3485 18.5835 23.517 19.2578Z" stroke="white" stroke-miterlimit="10"/>
</svg>
