<svg width="26" height="25" viewBox="0 0 26 25" fill="none" xmlns="http://www.w3.org/2000/svg">
<ellipse cx="13.3421" cy="12.5" rx="12.4988" ry="12.5" fill="white"/>
<path d="M19.9672 9.3125C19.5297 9.5 19.0298 9.625 18.5298 9.6875C19.0298 9.375 19.4672 8.875 19.6547 8.3125C19.1547 8.625 18.6548 8.8125 18.0298 8.9375C17.5924 8.4375 16.9049 8.125 16.2175 8.125C14.8426 8.125 13.7177 9.25 13.7177 10.625C13.7177 10.8125 13.7177 11 13.7802 11.1875C11.7179 11.0625 9.84307 10.0625 8.59318 8.5625C8.4057 8.9375 8.28071 9.375 8.28071 9.8125C8.28071 10.6875 8.71817 11.4375 9.40561 11.875C8.96815 11.875 8.59318 11.75 8.28071 11.5625C8.28071 12.75 9.15563 13.8125 10.2805 14C10.093 14.0625 9.84307 14.0625 9.59309 14.0625C9.40561 14.0625 9.28062 14.0625 9.09314 14C9.40561 15 10.343 15.75 11.4679 15.75C10.593 16.4375 9.5306 16.8125 8.34321 16.8125C8.15572 16.8125 7.96824 16.8125 7.71826 16.75C8.84316 17.4375 10.1555 17.875 11.5929 17.875C16.2175 17.875 18.7173 14.0625 18.7173 10.75V10.4375C19.2172 10.25 19.6547 9.8125 19.9672 9.3125Z" fill="#8253D8"/>
</svg>
